<svg width="89" height="80" viewBox="0 0 89 80" fill="none" xmlns="http://www.w3.org/2000/svg">
<path d="M17.4777 11.0568C15.2997 9.57587 12.1335 8.11438 10.7111 7.28161C10.0714 6.90704 9.37981 6.49839 8.68797 6.08932C7.37158 5.55269 6.15058 5.02804 6.00643 4.97999C5.41963 4.78439 4.53723 4.29319 3.55922 3.70344C3.46363 3.5049 0.775823 1.64481 1.01507 1.50184C1.5048 1.20917 2.77345 1.26923 7.01507 1.2077C10.3609 1.15917 9.76137 1.3426 13.015 1.2077C16.5623 1.06063 27.9303 2.02437 30.8286 1.69597C32.9831 1.45183 34.5696 0.615943 41.6175 1.2077C43.369 1.35477 46.7762 1.11549 51.4239 1.50184C54.3609 1.74597 56.3282 1.88544 57.7346 2.33571C58.9612 2.72838 60.1776 3.05106 61.3128 3.80786L61.3953 3.86287C62.5468 4.63016 63.7125 5.40699 64.4483 6.50509C65.138 7.53456 66.2631 8.37328 67.7353 9.59351C69.1618 10.7759 70.7447 12.1616 72.2944 14.3026C73.5738 16.0704 74.994 17.5521 76.0196 18.3191C77.1976 19.2 78.4447 19.6878 79.5492 20.5736C81.0273 21.759 82.805 23.4867 83.9613 24.3974C85.3393 25.4827 85.5476 26.5489 86.5151 28C87.3004 29.178 87.1224 36.322 87.5151 37.5C87.9077 38.678 86.5318 41.1413 87.015 43C87.3592 44.3236 86.515 45 86.515 48.5C86.515 59.9721 87.153 60.0325 87.015 64.5C86.868 69.2606 87.2997 70.3649 87.015 71.5C86.6709 72.8721 86.6957 72.7113 86.515 74.5C86.3665 75.9707 87.8623 77.818 86.515 78C85.9738 78.0731 86.6062 78.4449 86.9901 78.638C87.2492 78.7683 87.3951 78.8173 86.9901 78.638C86.8001 78.5539 86.4889 78.4195 86.0114 78.2198C84.8334 77.7271 83.8457 76.7394 82.7274 75.9138C81.5979 75.0799 80.2757 74.0431 78.9521 72.9724C77.6741 71.9385 75.8842 70.8129 74.4386 69.2428C72.6797 67.3324 71.9002 66.3506 70.7119 65.0249C68.5618 62.6262 67.4784 61.3316 66.3543 59.7348C65.4204 58.4083 64.691 56.6435 62.8217 54.586C61.3025 52.9138 60.3806 50.3866 58.7053 48.3106C57.2787 46.5428 56.2478 44.7255 55.1242 43.603C52.2666 40.7484 49.2415 37.91 47.331 35.6128C45.9074 33.9009 44.7696 32.5111 43.1117 30.9537C40.613 28.6064 39.514 27.5351 37.0833 25.7122C35.3185 24.3885 33.9221 23.6522 32.4272 22.6252C30.7124 21.4472 29.3106 20.3113 27.5754 18.85C26.0003 17.5234 23.0133 15.2273 21.0559 13.507C19.8293 12.429 18.5671 11.7976 17.4777 11.0568Z" fill="#00A2FF"/>
<path d="M4.24603 3.51079C5.15871 4.00093 6.92419 5.04645 8.68797 6.08932M61.3128 3.80786C60.1776 3.05106 58.9612 2.72838 57.7346 2.33571C56.3282 1.88544 54.3609 1.74597 51.4239 1.50184C46.7762 1.11549 43.369 1.35477 41.6175 1.2077C34.5696 0.615943 32.9831 1.45183 30.8286 1.69597C27.9303 2.02437 16.5623 1.06063 13.015 1.2077C9.76137 1.3426 10.3609 1.15917 7.01507 1.2077C2.77345 1.26923 1.5048 1.20917 1.01507 1.50184C0.775823 1.64481 3.46363 3.5049 3.55922 3.70344C4.53723 4.29319 5.41963 4.78439 6.00643 4.97999C6.15058 5.02804 7.37158 5.55269 8.68797 6.08932M61.3128 3.80786L61.3953 3.86287M61.3128 3.80786C61.3403 3.8262 61.3678 3.84453 61.3953 3.86287M12.0151 7.28161C11.5599 7.23036 10.0713 6.65323 8.68797 6.08932M8.68797 6.08932C9.37981 6.49839 10.0714 6.90704 10.7111 7.28161C12.1335 8.11438 15.2997 9.57587 17.4777 11.0568C18.5671 11.7976 19.8293 12.429 21.0559 13.507C23.0133 15.2273 26.0003 17.5234 27.5754 18.85C29.3106 20.3113 30.7124 21.4472 32.4272 22.6252C33.9221 23.6522 35.3185 24.3885 37.0833 25.7122C39.514 27.5351 40.613 28.6064 43.1117 30.9537C44.7696 32.5111 45.9074 33.9009 47.331 35.6128C49.2415 37.91 52.2666 40.7484 55.1242 43.603C56.2478 44.7255 57.2787 46.5428 58.7053 48.3106C60.3806 50.3866 61.3025 52.9138 62.8217 54.586C64.691 56.6435 65.4204 58.4083 66.3543 59.7348C67.4784 61.3316 68.5618 62.6262 70.7119 65.0249C71.9002 66.3506 72.6797 67.3324 74.4386 69.2428C75.8842 70.8129 77.6741 71.9385 78.9521 72.9724C80.2757 74.0431 81.5979 75.0799 82.7274 75.9138C83.8457 76.7394 84.8334 77.7271 86.0114 78.2198C89.015 79.476 85.437 78.1456 86.515 78C87.8623 77.818 86.3665 75.9707 86.515 74.5C86.6957 72.7113 86.6709 72.8721 87.015 71.5C87.2997 70.3649 86.8679 69.2606 87.015 64.5C87.153 60.0325 86.515 59.9721 86.515 48.5C86.515 45 87.3592 44.3236 87.015 43C86.5318 41.1413 87.9077 38.678 87.5151 37.5C87.1224 36.322 87.3004 29.178 86.5151 28C85.5476 26.5489 85.3393 25.4827 83.9613 24.3974C82.805 23.4867 81.0272 21.759 79.5492 20.5736C78.4447 19.6878 77.1976 19.2 76.0196 18.3191C74.994 17.5521 73.5738 16.0704 72.2944 14.3026C70.7447 12.1616 69.1618 10.7759 67.7353 9.59351C66.2631 8.37328 65.138 7.53456 64.4483 6.50509C63.7125 5.40699 62.5468 4.63016 61.3953 3.86287" stroke="#00A2FF" stroke-width="2" stroke-linecap="round" stroke-linejoin="round"/>
<path d="M50.8621 7.72221L52.5591 9.41927L51.7785 13.9334L56.2927 13.1528L58.0123 14.8725L51.5522 16.0152L50.3077 23.007L48.5654 21.2647L49.3913 16.3206L44.4585 17.1578L42.7615 15.4608L49.6855 14.2615L50.8621 7.72221ZM51.8684 24.5677L59.788 16.6481L61.2361 18.0963L55.6132 23.7192L65.4901 22.3502L66.8591 23.7192L58.9395 31.6388L57.4913 30.1906L63.1029 24.579L53.2373 25.9367L51.8684 24.5677ZM63.3887 36.0881L70.4259 29.0509L70.4146 29.7637L67.4504 26.7995L68.6949 25.555L75.3926 32.2527L74.1481 33.4972L71.1839 30.533L71.8853 30.5104L64.8482 37.5475L63.3887 36.0881Z" fill="white"/>
</svg>
