<svg xmlns="http://www.w3.org/2000/svg" style="width:35px; height:35px;">

    <symbol id="icon-youtube" viewBox="0 0 128 128">
        <path d="M126.72,38.224c0,0-1.252-8.883-5.088-12.794
      c-4.868-5.136-10.324-5.16-12.824-5.458
      c-17.912-1.305-44.78-1.305-44.78-1.305h-0.056
      c0,0-26.868,0-44.78,1.305
      c-2.504,0.298-7.956,0.322-12.828,5.458
      C2.528,29.342,1.28,38.224,1.28,38.224
      S0,48.658,0,59.087v9.781
      c0,10.433,1.28,20.863,1.28,20.863
      s1.248,8.883,5.084,12.794
      c4.872,5.136,11.268,4.975,14.116,5.511
      c10.24,0.991,43.52,1.297,43.52,1.297
      s26.896-0.04,44.808-1.345
      c2.5-0.302,7.956-0.326,12.824-5.462
      c3.836-3.912,5.088-12.794,5.088-12.794
      S128,79.302,128,68.868v-9.781
      C128,48.658,126.72,38.224,126.72,38.224z
      M50.784,80.72L50.78,44.501l34.584,18.172L50.784,80.72z" fill="currentColor" />
    </symbol>

    <!-- Логотип стрелки вверх -->
    <symbol id="icon-arrow-up" viewBox="0 0 40.528 40.528">
        <path
            d="M16 8A8 8 0 1 0 0 8a8 8 0 0 0 16 0m-7.5 3.5a.5.5 0 0 1-1 0V5.707L5.354 7.854a.5.5 0 1 1-.708-.708l3-3a.5.5 0 0 1 .708 0l3 3a.5.5 0 0 1-.708.708L8.5 5.707z" />
    </symbol>

    <!-- Письмо -->
    <symbol id="icon-mes" viewBox="0 0 32 32">
        <path style="fill: rgb(0, 162, 255);"
            d="M20.264,0C11.749,0,4.847,6.903,4.847,15.417c0,5.054,5.432,14.649,9.847,21.613 c2.957,4.664,8.183,4.664,11.14,0c4.415-6.965,9.847-16.559,9.847-21.613C35.681,6.902,28.779,0,20.264,0z M20.264,22.667 c-4.234,0-7.667-3.433-7.667-7.667s3.433-7.667,7.667-7.667s7.667,3.433,7.667,7.667S24.498,22.667,20.264,22.667z"
            fill="#010002"></path>
    </symbol>
    <!-- Телефон -->
    <symbol id="icon-phone" viewBox="0 0 401.998 401.998">
        <path
            d="M401.129,311.475c-1.137-3.426-8.371-8.473-21.697-15.129c-3.61-2.098-8.754-4.949-15.41-8.566 c-6.662-3.617-12.709-6.95-18.13-9.996c-5.432-3.045-10.521-5.995-15.276-8.846c-0.76-0.571-3.139-2.234-7.136-5 c-4.001-2.758-7.375-4.805-10.14-6.14c-2.759-1.327-5.473-1.995-8.138-1.995c-3.806,0-8.56,2.714-14.268,8.135 c-5.708,5.428-10.944,11.324-15.7,17.706c-4.757,6.379-9.802,12.275-15.126,17.7c-5.332,5.427-9.713,8.138-13.135,8.138 c-1.718,0-3.86-0.479-6.427-1.424c-2.566-0.951-4.518-1.766-5.858-2.423c-1.328-0.671-3.607-1.999-6.845-4.004 c-3.244-1.999-5.048-3.094-5.428-3.285c-26.075-14.469-48.438-31.029-67.093-49.676c-18.649-18.658-35.211-41.019-49.676-67.097 c-0.19-0.381-1.287-2.19-3.284-5.424c-2-3.237-3.333-5.518-3.999-6.854c-0.666-1.331-1.475-3.283-2.425-5.852 s-1.427-4.709-1.427-6.424c0-3.424,2.713-7.804,8.138-13.134c5.424-5.327,11.326-10.373,17.7-15.128 c6.379-4.755,12.275-9.991,17.701-15.699c5.424-5.711,8.136-10.467,8.136-14.273c0-2.663-0.666-5.378-1.997-8.137 c-1.332-2.765-3.378-6.139-6.139-10.138c-2.762-3.997-4.427-6.374-4.999-7.139c-2.852-4.755-5.799-9.846-8.848-15.271 c-3.049-5.424-6.377-11.47-9.995-18.131c-3.615-6.658-6.468-11.799-8.564-15.415C98.986,9.233,93.943,1.997,90.516,0.859 C89.183,0.288,87.183,0,84.521,0c-5.142,0-11.85,0.95-20.129,2.856c-8.282,1.903-14.799,3.899-19.558,5.996 c-9.517,3.995-19.604,15.605-30.264,34.826C4.863,61.566,0.01,79.271,0.01,96.78c0,5.135,0.333,10.131,0.999,14.989 c0.666,4.853,1.856,10.326,3.571,16.418c1.712,6.09,3.093,10.614,4.137,13.56c1.045,2.948,2.996,8.229,5.852,15.845 c2.852,7.614,4.567,12.275,5.138,13.988c6.661,18.654,14.56,35.307,23.695,49.964c15.03,24.362,35.541,49.539,61.521,75.521 c25.981,25.98,51.153,46.49,75.517,61.526c14.655,9.134,31.314,17.032,49.965,23.698c1.714,0.568,6.375,2.279,13.986,5.141 c7.614,2.854,12.897,4.805,15.845,5.852c2.949,1.048,7.474,2.43,13.559,4.145c6.098,1.715,11.566,2.905,16.419,3.576 c4.856,0.657,9.853,0.996,14.989,0.996c17.508,0,35.214-4.856,53.105-14.562c19.219-10.656,30.826-20.745,34.823-30.269 c2.102-4.754,4.093-11.273,5.996-19.555c1.909-8.278,2.857-14.985,2.857-20.126C401.99,314.814,401.703,312.819,401.129,311.475z"
            fill="#000000" style="fill: rgb(0, 162, 255);"></path>
    </symbol>

    <!-- Email -->
    <symbol id="icon-mail" viewBox="0 0 32 32">
        <path d="m16 15 14-4.3v-3.7c0-.6-.4-1-1-1h-26c-.6 0-1 .4-1 1v3.7z" fill="#000000"
            style="fill: rgb(0, 162, 255);"></path>
        <path d="m16.3 17c-.1 0-.2 0-.3 0s-.2 0-.3 0l-13.7-4.2v12.2c0 .6.4 1 1 1h26c.6 0 1-.4 1-1v-12.2z" fill="#000000"
            style="fill: rgb(0, 162, 255);"></path>
    </symbol>
    <symbol id='icon-telegram' viewBox="0 0 32 32">
        <path
            d="M16 0.5c-8.563 0-15.5 6.938-15.5 15.5s6.938 15.5 15.5 15.5c8.563 0 15.5-6.938 15.5-15.5s-6.938-15.5-15.5-15.5zM23.613 11.119l-2.544 11.988c-0.188 0.85-0.694 1.056-1.4 0.656l-3.875-2.856-1.869 1.8c-0.206 0.206-0.381 0.381-0.781 0.381l0.275-3.944 7.181-6.488c0.313-0.275-0.069-0.431-0.482-0.156l-8.875 5.587-3.825-1.194c-0.831-0.262-0.85-0.831 0.175-1.231l14.944-5.763c0.694-0.25 1.3 0.169 1.075 1.219z"
            fill="#FFFFFF" />
    </symbol>

    <symbol viewBox="0 0 64 64" id='icon-vk'>

        <rect fill="#ffffff" height="64" rx="11.2" ry="11.2" width="64" />
        <path fill="#000000"
            d="M9.62,19.77H17.3a.79.79,0,0,1,.74.51c.85,2.19,4.38,10.76,7.61,11.46,2.4,0,1.55-11.4-1.5-11.4-.8,0,1.42-1.42,1.57-1.48a16.38,16.38,0,0,1,8.66,0c1.53.64,1.79,2.43,1.83,3.95s-1.7,8,.59,8.7c3,.92,6.86-8.49,7.76-10.8a.79.79,0,0,1,.74-.5h8.55a.8.8,0,0,1,.74,1.11,74.74,74.74,0,0,1-6.31,11.52,1.59,1.59,0,0,0,.16,2C51,37.58,58,45.34,54,45.34H45.37a1.57,1.57,0,0,1-1.18-.53c-1.34-1.48-5.24-5.6-7-5.27-1.46.27-1.6,2.75-1.53,4.37a1.6,1.6,0,0,1-1.48,1.68c-1.53.09-3.62.13-3.81.12-6.1-.39-9.71-4.46-13.16-9A56.33,56.33,0,0,1,8.86,20.83.81.81,0,0,1,9.62,19.77Z" />

    </symbol>

    <symbol viewBox="0 0 48 48" id='arrow-next'>

        <path id="XMLID_3201_"
            d="m47.436 22.577-15.029-15.038c-3.048-3.049-7.639 1.566-4.604 4.602l11.848 11.849-11.849 11.85c-2.91 2.909 1.471 7.736 4.604 4.602l15.029-15.037c.781-.781.781-2.047.001-2.828z"
            fill="#9a7baa" style="fill: rgb(0, 162, 255);"></path>
        <path id="XMLID_3172_"
            d="m34.022 22.577-15.029-15.038c-3.048-3.049-7.639 1.566-4.604 4.602l11.848 11.849-11.849 11.85c-2.91 2.909 1.471 7.736 4.604 4.602l15.029-15.037c.781-.781.781-2.047.001-2.828z"
            fill="#9a7baa" style="fill: rgb(0, 162, 255);"></path>
        <path id="XMLID_3167_"
            d="m20.608 22.577-15.029-15.038c-3.048-3.049-7.64 1.567-4.604 4.602l11.849 11.849-11.85 11.85c-2.91 2.909 1.471 7.736 4.604 4.602l15.029-15.037c.781-.781.781-2.047.001-2.828z"
            fill="#9a7baa" style="fill: rgb(0, 162, 255);"></path>

    </symbol>

    <symbol viewBox="0 0 48 48" id='arrow-prev'>

        <path id="XMLID_2894_"
            d="m.564 22.577 15.029-15.038c3.048-3.049 7.639 1.566 4.604 4.602l-11.848 11.85 11.849 11.85c2.91 2.909-1.471 7.736-4.604 4.602l-15.03-15.038c-.78-.781-.78-2.047 0-2.828z"
            fill="#ef56a7" style="fill: rgb(0, 162, 255);"></path>
        <path id="XMLID_2669_"
            d="m13.978 22.577 15.029-15.038c3.048-3.049 7.639 1.566 4.604 4.602l-11.848 11.85 11.849 11.85c2.91 2.909-1.471 7.736-4.604 4.602l-15.03-15.038c-.78-.781-.78-2.047 0-2.828z"
            fill="#ef56a7" style="fill: rgb(0, 162, 255);"></path>
        <path id="XMLID_2667_"
            d="m27.392 22.577 15.03-15.038c3.048-3.049 7.639 1.566 4.604 4.602l-11.849 11.85 11.849 11.85c2.91 2.909-1.471 7.736-4.604 4.602l-15.029-15.038c-.781-.781-.781-2.047-.001-2.828z"
            fill="#ef56a7" style="fill: rgb(0, 162, 255);"></path>

    </symbol>

    <symbol viewBox="0 0 220 220" id="icon-lightning">
        <path d="M75.102,220l12.689-101.666H57.334L70.023,0h74.875L119.52,81.668h43.146L75.102,220z" fill="#000000"
            style="fill: rgb(0, 162, 255);"></path>
    </symbol>

    <symbol viewBox="0 0 200 200" id="icon-people">
        <path d="m50.4 172.8c0-27.5 22.3-49.6 49.6-49.6s49.6 22.3 49.6 49.6" fill="#386c63"
            style="fill: rgb(0, 162, 255);"></path>
        <circle cx="100" cy="103.3" r="19.9" fill="#386c63" style="fill: rgb(0, 162, 255);">
        </circle>
        <g>
            <path
                d="m131.5 116.5c1.7-4.1 2.7-8.7 2.7-13.3 0-10.9-5.1-20.5-12.9-26.8 8.1-6 18.3-9.5 29.2-9.5 27.5 0 49.6 22.3 49.6 49.6-.1 0-68.6 0-68.6 0z"
                fill="#000000" style="fill: rgb(0, 162, 255);"></path>
            <circle cx="150.4" cy="47.1" r="19.9" fill="#000000" style="fill: rgb(0, 162, 255);"></circle>
        </g>
        <g>
            <path
                d="m65.9 103.3c0 4.7.9 9.2 2.7 13.3h-68.6c0-27.5 22.3-49.6 49.6-49.6 10.9 0 21.1 3.5 29.2 9.5-7.9 6.2-12.9 15.9-12.9 26.8z"
                fill="#000000" style="fill: rgb(0, 162, 255);"></path>
            <circle cx="49.6" cy="47.1" r="19.9" fill="#000000" style="fill: rgb(0, 162, 255);"></circle>
        </g>
    </symbol>

    <symbol viewBox="0 0 200 200" id="icon-sience">
        <path
            d="M13.502,99.8h30.3v12.4h-13.2c-3.8,0-6.9,3.1-6.9,6.899c0,3.801,3.1,6.9,6.9,6.9h74.9c3.8,0,6.899-3.1,6.899-6.9 c0-3.8-3.1-6.899-6.899-6.899v-8.3c7-4,11.8-11.601,11.8-20.301c0-8.399-4.5-15.8-11.2-19.899c-0.1-7.3-1.9-18.8-10-31l-5.5,6 l-4.6,5l-1,1.1c3.399,6.1,4.8,11.7,5.199,15.9c-11.1,1.8-19.5,11.399-19.5,23c0,2.2,0.301,4.3,0.9,6.3h-58c-2.7,0-4.9,2.2-4.9,4.9 C8.602,97.6,10.802,99.8,13.502,99.8z M94.002,76.1c4.199,0,7.6,3.4,7.6,7.601c0,2.6-1.3,4.899-3.3,6.3c-1.2,0.8-2.7,1.3-4.2,1.3 c-1.6,0-3-0.5-4.2-1.3c-2-1.4-3.3-3.7-3.3-6.3C86.401,79.5,89.802,76.1,94.002,76.1z"
            fill="#000000" style="fill: rgb(0, 162, 255);"></path>
        <path
            d="M41.302,56.9l6.4,6.4c2.4,2.4,6.2,2.3,8.5-0.2l38.9-42.1c1-1.1,1.6-2.6,1.6-4c0-1.5-0.5-2.9-1.6-4.1 c1.9-1.2,3.1-3.4,3.1-5.8c0-2-0.8-3.7-2.1-5c-1.3-1.3-3-2.1-5-2.1c-2.4,0-4.6,1.2-5.8,3.1c-1.101-1.1-2.601-1.6-4.101-1.6 c-1.399,0-2.899,0.5-4,1.6L35.002,42c-2.5,2.3-2.5,6.1-0.2,8.5L41.302,56.9z"
            fill="#000000" style="fill: rgb(0, 162, 255);"></path>
    </symbol>
</svg>